<?xml version="1.0" standalone="no"?>
<!DOCTYPE svg PUBLIC "-//W3C//DTD SVG 20010904//EN"
 "http://www.w3.org/TR/2001/REC-SVG-20010904/DTD/svg10.dtd">
<svg version="1.0" xmlns="http://www.w3.org/2000/svg"
 width="202.000000pt" height="202.000000pt" viewBox="0 0 202.000000 202.000000"
 preserveAspectRatio="xMidYMid meet">
<metadata>
Created by potrace 1.14, written by Peter Selinger 2001-2017
</metadata>
<g transform="translate(0.000000,202.000000) scale(0.100000,-0.100000)"
fill="#000000" stroke="none">
<path d="M997 2014 c-1 -1 -32 -4 -68 -7 -235 -20 -463 -200 -546 -432 -30
-81 -38 -142 -36 -255 3 -246 142 -457 378 -579 l60 -30 -123 1 c-67 1 -125
-2 -128 -5 -5 -4 -8 -318 -5 -409 1 -16 14 -18 135 -18 l133 0 1 -127 c0 -71
1 -134 1 -140 1 -10 51 -13 216 -13 l215 0 0 140 0 140 145 0 145 0 0 215 c0
198 -1 215 -17 216 -10 0 -74 0 -143 0 l-125 -1 72 39 c234 124 361 329 368
591 6 248 -138 487 -360 598 -84 42 -148 60 -238 70 -42 5 -78 7 -80 6z"/>
</g>
</svg>
