<?xml version="1.0" encoding="UTF-8"?>
<svg id="Layer_1" data-name="Layer 1" xmlns="http://www.w3.org/2000/svg" viewBox="0 0 303.3 303.3">
  <defs>
    <style>
      .cls-1 {
        fill: #fff;
      }

      .cls-2 {
        stroke-dasharray: 0 0 59.483 29.742;
        stroke-width: 19.278px;
      }

      .cls-2, .cls-3 {
        fill: none;
        stroke: #000;
        stroke-miterlimit: 10;
      }

      .cls-3 {
        stroke-dasharray: 0 0 32.674 16.337;
        stroke-width: 10.589px;
      }
    </style>
  </defs>
  <g>
    <g>
      <path class="cls-1" d="m151.811,269.161c-4.078,0-8.217-.215-12.301-.64-31.217-3.243-59.304-18.448-79.085-42.815-19.781-24.367-28.889-54.979-25.646-86.196,3.021-29.084,16.667-55.84,38.426-75.338,21.612-19.367,49.414-30.033,78.284-30.033,4.078,0,8.217.215,12.301.64,31.217,3.243,59.304,18.448,79.085,42.815,19.781,24.367,28.889,54.979,25.646,86.196-3.021,29.084-16.667,55.84-38.426,75.338-21.612,19.367-49.414,30.033-78.284,30.033Z"/>
      <path d="m151.499,49.14c3.556,0,7.17.188,10.741.559,56.216,5.839,97.201,56.325,91.362,112.541-2.635,25.371-14.539,48.71-33.517,65.717-18.856,16.898-43.103,26.204-68.274,26.204-3.562,0-7.179-.188-10.751-.559-56.216-5.839-97.201-56.325-91.362-112.541,2.635-25.371,14.538-48.709,33.517-65.715,18.856-16.897,43.104-26.204,68.28-26.206h.004m-.01-30c-67.023.005-124.553,50.691-131.63,118.821-7.56,72.786,45.316,137.92,118.102,145.48,4.656.484,9.27.72,13.85.72,67.023,0,124.553-50.691,131.63-118.821,7.56-72.786-45.316-137.92-118.102-145.48-4.656-.484-9.27-.72-13.85-.72h0Z"/>
    </g>
    <circle class="cls-2" cx="151.65" cy="151.65" r="142" transform="translate(-62.816 151.65) rotate(-45)"/>
  </g>
  <g>
    <g>
      <path d="m151.579,216.208c-30.128,0-56.628-21.409-63.011-50.906-3.646-16.85-.513-34.111,8.823-48.604,9.336-14.493,23.757-24.483,40.607-28.129,4.524-.979,9.141-1.476,13.722-1.476,30.128,0,56.628,21.409,63.011,50.906,3.646,16.85.513,34.111-8.823,48.604-9.336,14.493-23.757,24.483-40.607,28.129-4.524.979-9.141,1.476-13.722,1.476Z"/>
      <path d="m151.723,95.332c12.646,0,25.097,4.375,35.062,12.32,10.238,8.163,17.118,19.26,19.894,32.089,6.566,30.343-12.777,60.371-43.12,66.938-3.952.855-7.983,1.289-11.98,1.289-12.647,0-25.1-4.375-35.064-12.32-10.238-8.163-17.118-19.259-19.894-32.09-6.566-30.343,12.777-60.371,43.12-66.938,3.952-.855,7.982-1.289,11.976-1.289h.006m-.002-16.479c-5.099,0-10.278.539-15.465,1.662-39.287,8.502-64.243,47.242-55.741,86.529,7.38,34.1,37.538,57.403,71.064,57.403,5.099,0,10.278-.539,15.465-1.662,39.287-8.502,64.243-47.242,55.741-86.529-7.38-34.1-37.538-57.404-71.064-57.403h0Z"/>
    </g>
    <circle class="cls-3" cx="151.65" cy="151.65" r="78" transform="translate(-62.816 151.65) rotate(-45)"/>
  </g>
  <g>
    <path class="cls-1" d="m202.65,151.65s-22.833,35.728-51,35.728-51-35.728-51-35.728c0,0,22.833-35.728,51-35.728s51,35.728,51,35.728Z"/>
    <circle cx="151.65" cy="151.65" r="26.214"/>
    <circle class="cls-1" cx="151.65" cy="138.606" r="6.309"/>
  </g>
</svg>