<?xml version="1.0" encoding="UTF-8"?>
<svg id="Layer_1" data-name="Layer 1" xmlns="http://www.w3.org/2000/svg" viewBox="0 0 291.062 300.829">
  <defs>
    <style>
      .cls-1 {
        fill: #fff;
      }

      .cls-2 {
        stroke-width: 100px;
      }

      .cls-2, .cls-3, .cls-4, .cls-5, .cls-6, .cls-7 {
        fill: none;
        stroke-linejoin: round;
      }

      .cls-2, .cls-5, .cls-7 {
        stroke: #000;
      }

      .cls-3 {
        stroke-width: 89.069px;
      }

      .cls-3, .cls-4, .cls-6 {
        stroke: #fff;
      }

      .cls-4 {
        stroke-width: 70.317px;
      }

      .cls-5 {
        stroke-width: 51.287px;
      }

      .cls-6 {
        stroke-width: 52.881px;
      }

      .cls-7 {
        stroke-width: 73.368px;
      }
    </style>
  </defs>
  <polygon class="cls-2" points="160.998 102.649 204.472 69.118 186.12 120.863 241 119.289 195.738 150.364 241.062 181.348 186.179 179.885 204.635 231.592 161.094 198.149 145.632 250.829 130.064 198.18 86.591 231.711 104.942 179.967 50.062 181.541 95.324 150.465 50 119.481 104.883 120.944 86.427 69.237 129.968 102.68 145.43 50 160.998 102.649"/>
  <polygon class="cls-3" points="102.987 136.638 73.121 97.917 119.209 114.262 117.807 65.381 145.486 105.695 173.084 65.325 171.78 114.209 217.836 97.771 188.048 136.553 234.97 150.325 188.076 164.191 217.942 202.913 171.853 186.567 173.255 235.448 145.576 195.134 117.979 235.504 119.282 186.62 73.227 203.058 103.014 164.276 56.092 150.505 102.987 136.638"/>
  <polygon class="cls-7" points="110.487 139.067 85.886 107.171 123.85 120.636 122.695 80.372 145.494 113.579 168.226 80.326 167.153 120.592 205.089 107.051 180.553 138.996 219.203 150.34 180.576 161.762 205.176 193.658 167.213 180.194 168.367 220.458 145.568 187.25 122.836 220.503 123.91 180.237 85.973 193.778 110.51 161.833 71.859 150.489 110.487 139.067"/>
  <polygon class="cls-4" points="134.655 184.002 104.086 207.58 116.99 171.195 78.4 172.301 110.227 150.45 78.356 128.663 116.949 129.692 103.971 93.333 134.588 116.849 145.46 79.806 156.407 116.827 186.976 93.249 174.072 129.635 212.662 128.528 180.835 150.379 212.706 172.166 174.114 171.137 187.091 207.496 156.475 183.98 145.602 221.023 134.655 184.002"/>
  <polygon class="cls-5" points="137.599 174.912 115.302 192.109 124.714 165.571 96.568 166.378 119.781 150.441 96.536 134.55 124.684 135.3 115.218 108.781 137.549 125.933 145.479 98.915 153.464 125.917 175.76 108.72 166.348 135.258 194.495 134.451 171.281 150.389 194.527 166.28 166.379 165.529 175.844 192.049 153.513 174.896 145.583 201.915 137.599 174.912"/>
  <polygon class="cls-6" points="170.79 158.594 188.521 181.583 161.158 171.878 161.991 200.899 145.558 176.964 129.173 200.932 129.947 171.91 102.604 181.669 120.289 158.644 92.431 150.468 120.272 142.236 102.541 119.247 129.904 128.951 129.072 99.93 145.504 123.865 161.889 99.897 161.115 128.92 188.458 119.16 170.773 142.185 198.631 150.361 170.79 158.594"/>
  <rect class="cls-1" x="110.531" y="236.915" width="73" height="35"/>
  <g>
    <path d="m116.096,284.912v-61.974c0-5.997,0-11.995-5.997-17.992-16.993-12.755-29.987-37.984-23.99-39.983,2.359-.78,83.964-31.986,109.953,1.999,2.539,3.319-6.877,35.765-11.175,41.242-2.219,3.758-6.817,8.676-6.817,14.734v61.974h-61.974Z"/>
    <g>
      <path d="m186.929,173.487c-3.044,0-6.274-1.402-8.037-3.487-1.131-1.338-1.593-2.85-1.335-4.372,1.763-10.432,7.038-25.33,12.814-32.204,1.071-1.274,2.58-1.948,4.365-1.948,5.071,0,11.357,5.521,11.958,9.407,1.01,6.52-8.725,27.464-15.777,31.604-1.114.654-2.493,1-3.987,1h0Z"/>
      <path class="cls-1" d="m194.736,133.038c4.231,0,9.911,4.822,10.416,8.085.905,5.849-8.475,26.174-15.025,30.019-.926.543-2.038.785-3.198.785-3.929,0-8.384-2.781-7.834-6.038,1.731-10.245,6.97-24.915,12.471-31.46.824-.98,1.935-1.391,3.17-1.391m0-3.122c-2.261,0-4.184.866-5.56,2.504-5.948,7.078-11.361,22.311-13.159,32.949-.331,1.961.266,3.963,1.683,5.64,2.074,2.454,5.697,4.04,9.229,4.04,1.772,0,3.424-.42,4.778-1.215,5.021-2.948,9.741-11.884,11.537-15.589,1.372-2.831,5.788-12.465,4.993-17.6-.776-5.013-7.968-10.729-13.501-10.729h0Z"/>
    </g>
    <g>
      <path d="m166.372,165.989c-4.108,0-8.304-2.497-10.326-4.963-1.214-1.481-1.711-2.987-1.438-4.354,2.05-10.249,10.13-28.402,16.953-38.085,1.064-1.511,2.825-2.309,5.09-2.309,3.62,0,8.226,2.149,10.952,5.111,1.758,1.91,2.6,3.974,2.434,5.968-.498,5.985-12.794,32.175-18.823,37.037-1.293,1.043-2.968,1.595-4.841,1.595h0Z"/>
      <path class="cls-1" d="m176.651,117.778c5.029,0,12.283,4.743,11.891,9.456-.477,5.744-12.659,31.469-18.27,35.994-1.102.889-2.462,1.262-3.9,1.262-4.982,0-10.902-4.481-10.294-7.523,1.999-9.996,9.996-27.988,16.709-37.515.825-1.171,2.227-1.674,3.864-1.674m0-2.999c-2.734,0-4.977,1.046-6.316,2.945-6.918,9.819-15.115,28.243-17.198,38.655-.254,1.271-.157,3.273,1.749,5.599,2.245,2.739,6.911,5.511,11.485,5.511,2.22,0,4.22-.666,5.783-1.927,6.407-5.168,18.851-31.765,19.376-38.08.201-2.423-.775-4.881-2.825-7.108-3.032-3.294-7.989-5.595-12.055-5.595h0Z"/>
    </g>
    <g>
      <path d="m151.925,150.473c-2.597,0-21.066-3.523-23-6.315-.363-.523-.45-1.148-.238-1.712,5.742-15.312,13.634-29.657,22.224-40.393.479-.599,1.426-1.313,3.214-1.313,4.708,0,13.254,5.051,16.198,8.821,1.082,1.386,1.487,2.66,1.206,3.788-1.13,4.521-5.615,14.277-9.111,21.258-7.879,15.731-9.366,15.812-10.254,15.86-.072.004-.15.006-.236.006h0Z"/>
      <path class="cls-1" d="m154.123,102.24c5.195,0,16.774,7.446,15.949,10.746-1.999,7.997-15.996,35.877-17.992,35.985-.047.003-.099.004-.156.004-3.275,0-22.525-4.161-21.835-6.001,5.997-15.993,13.994-29.987,21.991-39.983.417-.521,1.131-.75,2.043-.75m0-2.999c-2.384,0-3.7,1.02-4.385,1.876-8.686,10.857-16.661,25.348-22.457,40.803-.387,1.032-.237,2.159.41,3.093.591.852,1.58,2.279,12,4.779,4.518,1.084,10.171,2.181,12.232,2.181.116,0,.222-.003.318-.008,1.668-.09,3.245-.175,11.514-16.685,3.531-7.049,8.065-16.927,9.225-21.566.4-1.599-.098-3.306-1.479-5.074-3.234-4.142-12.066-9.398-17.38-9.398h0Z"/>
    </g>
    <g>
      <path d="m124.459,140.92c-5.58,0-25.503-6.002-27.49-8.76-.365-.507-.47-1.111-.288-1.657,4.188-12.565,20.64-37.281,28.857-43.353.661-.488,1.539-.736,2.61-.736,5.2,0,15.436,5.914,18.562,10.725,1.337,2.058,1.142,3.561.743,4.459-6.613,14.88-10.612,21.782-16.148,31.334-1.208,2.085-2.497,4.31-3.912,6.785-.683,1.194-2.297,1.202-2.921,1.202h-.013Z"/>
      <path class="cls-1" d="m128.148,87.915c5.747,0,19.808,8.862,17.935,13.076-7.997,17.992-11.995,23.99-19.991,37.984-.177.309-.755.447-1.632.447-6.145,0-26.919-6.754-26.356-8.443,3.998-11.995,20.056-36.51,28.326-42.621.411-.304,1-.443,1.719-.443m0-2.999c-1.399,0-2.577.346-3.501,1.03-9.226,6.818-25.392,32.096-29.388,44.084-.336,1.009-.156,2.105.495,3.008.473.656,1.73,2.4,13.048,5.954,2.562.804,11.262,3.429,15.658,3.429.771,0,3.117,0,4.236-1.958,1.413-2.473,2.701-4.696,3.908-6.779,5.558-9.592,9.574-16.523,16.22-31.475.55-1.238.848-3.264-.856-5.885-3.395-5.224-14.138-11.407-19.819-11.407h0Z"/>
    </g>
    <g>
      <path d="m137.862,172.411c-10.264,0-23.826-.688-34.55-1.754-20.343-2.021-20.555-4.142-20.695-5.544-2.027-20.274,7.867-31.177,15.012-33.558.228-.076.484-.111.807-.111,5.177,0,53.677,12.232,60.637,18.404,1.939,1.72,1.789,5.294,1.32,7.99-.825,4.745-3.711,12.019-6.989,13.333-2.051.823-7.28,1.24-15.539,1.24h-.003Z"/>
      <path class="cls-1" d="m98.436,132.943c4.988,0,53.15,12.269,59.642,18.027,3.344,2.966-1.521,17.321-5.232,18.81-1.962.787-7.654,1.132-14.982,1.132-20.394,0-53.427-2.676-53.754-5.949-1.999-19.991,7.997-29.987,13.994-31.986.069-.023.181-.034.333-.034m0-2.999c-.488,0-.895.06-1.281.188-7.602,2.534-18.144,13.981-16.029,35.129.311,3.107,3.985,4.114,8.05,4.949,3.428.704,8.135,1.356,13.99,1.938,10.77,1.07,24.39,1.762,34.699,1.762,12.74,0,15.268-1.015,16.099-1.348,4-1.605,7.032-9.428,7.907-14.47.776-4.467.169-7.618-1.803-9.367-7.399-6.562-56.247-18.782-61.632-18.782h0Z"/>
    </g>
    <path d="m84.86,156.335c-1.627,1.161-1.143,12.162.46,14.409,1.161,1.627,33.146,5.377,34.774,4.215,1.981-1.414,13.599-13.747,11.995-15.993-1.604-2.247-45.207-4.074-47.229-2.631Z"/>
    <g>
      <path d="m146.083,176.958c5.997,5.997,9.996,17.992,7.997,43.981"/>
      <path class="cls-1" d="m146.189,176.852c5.845,5.309,7.965,13.48,9.092,21.035,1.306,7.675,1.13,15.546-1.052,23.064,0,0-.299-.023-.299-.023-1.746-11.327.357-22.825-2.826-33.904-1.01-3.607-2.62-7.082-5.127-9.96l.212-.212h0Z"/>
    </g>
  </g>
</svg>