<?xml version="1.0" encoding="UTF-8"?>
<svg id="Layer_1" data-name="Layer 1" xmlns="http://www.w3.org/2000/svg" viewBox="0 0 299.012 317.357">
  <defs>
    <style>
      .cls-1, .cls-2 {
        fill: #fff;
      }

      .cls-2 {
        stroke: #000;
        stroke-miterlimit: 10;
        stroke-width: 20px;
      }
    </style>
  </defs>
  <path class="cls-2" d="m89.99,158.77h-49.95c-1.786,0-3.437.953-4.33,2.5l-24.975,43.258c-.893,1.547-.893,3.453,0,5l24.975,43.258c.893,1.547,2.544,2.5,4.33,2.5h49.95c1.786,0,3.437-.953,4.33-2.5l24.975-43.258c.893-1.547.893-3.453,0-5l-24.975-43.258c-.893-1.547-2.544-2.5-4.33-2.5Z"/>
  <path class="cls-2" d="m89.926,61.626h-49.95c-1.786,0-3.437.953-4.33,2.5l-24.975,43.258c-.893,1.547-.893,3.453,0,5l24.975,43.258c.893,1.547,2.544,2.5,4.33,2.5h49.95c1.786,0,3.437-.953,4.33-2.5l24.975-43.258c.893-1.547.893-3.453,0-5l-24.975-43.258c-.893-1.547-2.544-2.5-4.33-2.5Z"/>
  <path class="cls-2" d="m259.037,159.031h-49.95c-1.786,0-3.437.953-4.33,2.5l-24.975,43.258c-.893,1.547-.893,3.453,0,5l24.975,43.258c.893,1.547,2.544,2.5,4.33,2.5h49.95c1.786,0,3.437-.953,4.33-2.5l24.975-43.258c.893-1.547.893-3.453,0-5l-24.975-43.258c-.893-1.547-2.544-2.5-4.33-2.5Z"/>
  <path class="cls-2" d="m258.908,61.626h-49.95c-1.786,0-3.437.953-4.33,2.5l-24.975,43.258c-.893,1.547-.893,3.453,0,5l24.975,43.258c.893,1.547,2.544,2.5,4.33,2.5h49.95c1.786,0,3.437-.953,4.33-2.5l24.975-43.258c.893-1.547.893-3.453,0-5l-24.975-43.258c-.893-1.547-2.544-2.5-4.33-2.5Z"/>
  <polygon points="177.3 110.524 121.576 110.524 93.714 158.783 121.576 207.041 177.3 207.041 205.162 158.783 177.3 110.524"/>
  <path class="cls-2" d="m175.543,207.163h-52.074c-1.786,0-3.437.953-4.33,2.5l-26.037,45.097c-.893,1.547-.893,3.453,0,5l26.037,45.097c.893,1.547,2.544,2.5,4.33,2.5h52.074c1.786,0,3.437-.953,4.33-2.5l26.037-45.097c.893-1.547.893-3.453,0-5l-26.037-45.097c-.893-1.547-2.544-2.5-4.33-2.5Z"/>
  <path class="cls-2" d="m175.543,10h-52.074c-1.786,0-3.437.953-4.33,2.5l-26.037,45.097c-.893,1.547-.893,3.453,0,5l26.037,45.097c.893,1.547,2.544,2.5,4.33,2.5h52.074c1.786,0,3.437-.953,4.33-2.5l26.037-45.097c.893-1.547.893-3.453,0-5l-26.037-45.097c-.893-1.547-2.544-2.5-4.33-2.5Z"/>
  <g>
    <path d="m227.414,145.395c-3.079,0-5.575-2.496-5.575-5.575v-8.023c0-2.452,0-4.904-2.266-7.356-.185-.2-.394-.376-.609-.544-7.066-5.496-12.39-15.918-9.878-16.756,1.003-.332,35.708-13.603,46.761.85,1.08,1.411-2.925,15.21-4.753,17.54-.944,1.598-2.899,3.69-2.899,6.266v8.023c0,3.079-2.496,5.575-5.575,5.575h-15.207Z"/>
    <g>
      <path d="m251.963,110.766c-1.295,0-2.668-.596-3.418-1.482-.481-.569-.678-1.212-.568-1.859.749-4.436,2.992-10.771,5.449-13.696.456-.542,1.098-.828,1.857-.828,2.156,0,4.83,2.348,5.085,4,.43,2.773-3.71,11.679-6.709,13.44-.474.278-1.061.425-1.696.425h0Z"/>
      <path class="cls-1" d="m255.283,93.564c1.8,0,4.215,2.051,4.43,3.438.385,2.487-3.604,11.131-6.39,12.767-.394.231-.867.334-1.36.334-1.671,0-3.566-1.183-3.332-2.568.736-4.357,2.964-10.596,5.303-13.379.35-.417.823-.592,1.348-.592m0-1.328c-.961,0-1.779.368-2.365,1.065-2.529,3.01-4.832,9.488-5.596,14.012-.141.834.113,1.686.716,2.398.882,1.044,2.423,1.718,3.925,1.718.754,0,1.456-.179,2.032-.517,3.229-1.896,7.493-11.121,7.03-14.114-.33-2.132-3.389-4.563-5.742-4.563h0Z"/>
    </g>
    <g>
      <path d="m243.221,107.578c-1.747,0-3.532-1.062-4.391-2.11-.517-.63-.728-1.271-.612-1.852.872-4.358,4.308-12.078,7.209-16.197.453-.643,1.202-.982,2.165-.982,1.54,0,3.499.914,4.658,2.174.748.812,1.105,1.69,1.035,2.538-.211,2.545-5.441,13.684-8.005,15.751-.55.443-1.262.678-2.059.678h0Z"/>
      <path class="cls-1" d="m247.592,87.074c2.139,0,5.223,2.017,5.057,4.021-.203,2.443-5.384,13.383-7.77,15.308-.469.378-1.047.537-1.659.537-2.119,0-4.636-1.906-4.378-3.199.85-4.251,4.251-11.903,7.106-15.955.351-.498.947-.712,1.643-.712m0-1.275c-1.163,0-2.117.445-2.686,1.253-2.942,4.176-6.428,12.011-7.314,16.439-.108.54-.067,1.392.744,2.381.955,1.165,2.939,2.344,4.884,2.344.944,0,1.795-.283,2.459-.819,2.725-2.198,8.017-13.509,8.24-16.195.086-1.031-.33-2.076-1.201-3.023-1.289-1.401-3.397-2.379-5.127-2.379h0Z"/>
    </g>
    <g>
      <path d="m237.076,100.979c-1.104,0-8.958-1.499-9.781-2.686-.154-.223-.191-.488-.102-.728,2.442-6.512,5.799-12.612,9.451-17.179.204-.255.606-.558,1.367-.558,2.002,0,5.637,2.148,6.889,3.751.46.589.633,1.131.513,1.611-.487,1.946-6.553,15.695-8.236,15.786l-.101.002Z"/>
      <path class="cls-1" d="m238.012,80.466c2.209,0,7.134,3.167,6.783,4.57-.85,3.401-6.803,15.258-7.652,15.303-.02.001-.042.002-.066.002-1.393,0-9.579-1.77-9.286-2.552,2.551-6.802,5.951-12.753,9.352-17.004.177-.222.481-.319.869-.319m0-1.275c-1.014,0-1.574.434-1.865.798-3.694,4.617-7.086,10.78-9.55,17.353-.165.439-.101.918.174,1.315,1.08,1.558,9.43,2.96,10.306,2.96.049,0,.094-.001.135-.003.71-.038,1.38-.075,4.897-7.096,1.502-2.998,3.43-7.199,3.923-9.172.17-.68-.042-1.406-.629-2.158-1.375-1.762-5.131-3.997-7.391-3.997h0Z"/>
    </g>
    <g>
      <path d="m225.396,96.917c-2.373,0-10.846-2.553-11.691-3.726-.155-.215-.2-.472-.123-.705,1.781-5.343,8.777-15.854,12.272-18.437.281-.208.655-.313,1.11-.313,2.211,0,6.564,2.515,7.894,4.561.569.875.486,1.515.316,1.896-2.813,6.33-4.514,9.266-6.869,13.329-.514.886-1.062,1.831-1.662,2.883-.29.507-.976.511-1.242.511h-.006Z"/>
      <path class="cls-1" d="m226.965,74.374c2.444,0,8.424,3.769,7.627,5.561-3.401,7.652-5.101,10.202-8.502,16.154-.075.132-.321.19-.694.19-2.614,0-11.448-2.872-11.209-3.591,1.7-5.101,8.53-15.527,12.046-18.126.175-.129.425-.188.731-.188m0-1.275c-.595,0-1.096.147-1.489.438-3.924,2.9-10.799,13.65-12.498,18.748-.143.429-.066.895.21,1.279,1.129,1.566,10.031,3.99,12.208,3.99.328,0,1.326,0,1.801-.833.601-1.052,1.149-1.997,1.662-2.883,2.364-4.079,4.072-7.027,6.898-13.386.234-.526.361-1.388-.364-2.503-1.444-2.222-6.013-4.851-8.429-4.851h0Z"/>
    </g>
    <g>
      <path d="m231.096,110.309c-.232,0-23.212-.28-23.494-3.104-.863-8.622,3.345-13.259,6.384-14.272.097-.032.206-.047.343-.047,2.201,0,22.828,5.202,25.788,7.827.825.731.76,2.251.561,3.398-.351,2.018-1.578,5.111-2.972,5.67-.872.35-3.096.527-6.609.527h0Z"/>
      <path class="cls-1" d="m214.329,93.524c2.121,0,22.604,5.218,25.364,7.666,1.422,1.261-.647,7.366-2.225,8-.834.335-3.255.482-6.372.482-8.673,0-22.721-1.138-22.861-2.53-.85-8.502,3.401-12.753,5.951-13.603.03-.01.077-.015.141-.015m0-1.275c-.208,0-.381.025-.545.08-3.233,1.078-7.716,5.946-6.817,14.94.118,1.181.86,2.083,9.373,2.929,4.58.455,10.373.749,14.757.749,5.418,0,6.493-.432,6.847-.573,1.701-.683,2.99-4.009,3.363-6.154.33-1.9.072-3.24-.767-3.984-3.147-2.791-23.921-7.988-26.211-7.988h0Z"/>
    </g>
    <path d="m208.556,103.472c-.692.494-.486,5.172.196,6.128.494.692,14.096,2.287,14.788,1.793.842-.601,5.783-5.846,5.101-6.802s-19.225-1.733-20.085-1.119Z"/>
    <g>
      <path d="m234.592,112.243c2.551,2.551,4.251,7.652,3.401,18.704"/>
      <path class="cls-1" d="m234.637,112.198c4.33,4.186,4.998,13.194,3.419,18.754,0,0-.127-.01-.127-.01-.742-4.817.152-9.707-1.202-14.419-.429-1.532-1.101-3.022-2.181-4.236l.09-.09h0Z"/>
    </g>
  </g>
  <g>
    <path d="m227.543,242.799c-3.079,0-5.575-2.496-5.575-5.575v-8.023c0-2.452,0-4.904-2.266-7.356-.185-.2-.394-.376-.609-.544-7.066-5.496-12.39-15.918-9.878-16.756,1.003-.332,35.708-13.603,46.761.85,1.08,1.411-2.925,15.21-4.753,17.54-.944,1.598-2.899,3.69-2.899,6.266v8.023c0,3.079-2.496,5.575-5.575,5.575h-15.207Z"/>
    <g>
      <path d="m252.092,208.171c-1.295,0-2.668-.596-3.418-1.482-.481-.569-.678-1.212-.568-1.86.75-4.437,2.993-10.772,5.45-13.696.456-.542,1.097-.828,1.856-.828,2.156,0,4.83,2.348,5.085,4,.429,2.773-3.711,11.68-6.71,13.44-.474.278-1.061.425-1.696.425h0Z"/>
      <path class="cls-1" d="m255.413,190.969c1.8,0,4.215,2.051,4.43,3.438.385,2.487-3.604,11.131-6.39,12.766-.394.231-.867.334-1.36.334-1.671,0-3.566-1.183-3.332-2.568.736-4.357,2.964-10.596,5.303-13.379.35-.417.823-.592,1.348-.592m0-1.328c-.961,0-1.779.368-2.365,1.065-2.529,3.01-4.832,9.488-5.596,14.012-.141.834.113,1.686.716,2.398.882,1.044,2.423,1.718,3.925,1.718.754,0,1.456-.179,2.032-.517,3.229-1.896,7.493-11.121,7.03-14.114-.33-2.132-3.389-4.563-5.742-4.563h0Z"/>
    </g>
    <g>
      <path d="m243.35,204.983c-1.747,0-3.532-1.062-4.392-2.111-.517-.63-.728-1.271-.612-1.852.872-4.358,4.309-12.078,7.21-16.196.452-.643,1.201-.982,2.164-.982,1.54,0,3.499.914,4.657,2.174.748.812,1.106,1.69,1.035,2.538-.211,2.545-5.441,13.683-8.005,15.751-.55.444-1.262.678-2.058.678h0Z"/>
      <path class="cls-1" d="m247.721,184.479c2.139,0,5.223,2.017,5.057,4.021-.203,2.443-5.384,13.383-7.77,15.308-.469.378-1.047.537-1.659.537-2.119,0-4.636-1.906-4.378-3.199.85-4.251,4.251-11.903,7.106-15.955.351-.498.947-.712,1.643-.712m0-1.275c-1.163,0-2.117.445-2.686,1.253-2.942,4.176-6.428,12.011-7.314,16.439-.108.54-.067,1.392.744,2.381.955,1.165,2.939,2.344,4.884,2.344.944,0,1.795-.283,2.459-.819,2.725-2.198,8.017-13.509,8.24-16.195.086-1.031-.33-2.076-1.201-3.023-1.289-1.401-3.397-2.379-5.127-2.379h0Z"/>
    </g>
    <g>
      <path d="m237.206,198.384c-1.104,0-8.959-1.498-9.782-2.686-.155-.223-.191-.488-.102-.728,2.442-6.511,5.798-12.612,9.451-17.178.204-.254.606-.558,1.367-.558,2.002,0,5.637,2.148,6.889,3.751.46.589.633,1.131.513,1.611-.487,1.946-6.553,15.695-8.235,15.786l-.101.002Z"/>
      <path class="cls-1" d="m238.141,177.871c2.209,0,7.134,3.167,6.783,4.57-.85,3.401-6.803,15.258-7.652,15.303-.02.001-.042.002-.066.002-1.393,0-9.579-1.77-9.286-2.552,2.551-6.802,5.951-12.753,9.352-17.004.177-.222.481-.319.869-.319m0-1.275c-1.014,0-1.574.434-1.865.798-3.694,4.617-7.086,10.78-9.55,17.353-.165.439-.101.918.174,1.315,1.08,1.558,9.43,2.96,10.306,2.96.049,0,.094-.001.135-.003.71-.038,1.38-.075,4.897-7.096,1.502-2.998,3.43-7.199,3.923-9.172.17-.68-.042-1.406-.629-2.158-1.375-1.762-5.131-3.997-7.391-3.997h0Z"/>
    </g>
    <g>
      <path d="m225.525,194.321c-2.373,0-10.846-2.553-11.691-3.726-.155-.215-.2-.472-.123-.705,1.782-5.344,8.778-15.854,12.272-18.437.281-.208.655-.313,1.11-.313,2.211,0,6.564,2.515,7.894,4.561.568.875.485,1.515.315,1.896-2.812,6.328-4.513,9.263-6.867,13.325-.514.887-1.062,1.833-1.664,2.887-.29.507-.976.511-1.242.511h-.006Z"/>
      <path class="cls-1" d="m227.094,171.779c2.444,0,8.424,3.769,7.627,5.561-3.401,7.652-5.101,10.202-8.502,16.154-.075.132-.321.19-.694.19-2.614,0-11.448-2.872-11.209-3.591,1.7-5.101,8.53-15.527,12.046-18.126.175-.129.425-.188.731-.188m0-1.275c-.595,0-1.096.147-1.489.438-3.924,2.9-10.799,13.65-12.498,18.748-.143.429-.066.895.21,1.279,1.129,1.566,10.031,3.99,12.208,3.99.328,0,1.326,0,1.801-.833.601-1.052,1.149-1.997,1.662-2.883,2.364-4.079,4.072-7.027,6.898-13.386.234-.526.361-1.388-.364-2.503-1.444-2.222-6.013-4.851-8.429-4.851h0Z"/>
    </g>
    <g>
      <path d="m231.227,207.714c-.232,0-23.214-.28-23.496-3.104-.862-8.622,3.345-13.259,6.384-14.271.097-.032.206-.047.343-.047,2.201,0,22.828,5.202,25.788,7.827.824.731.76,2.25.562,3.396-.351,2.018-1.578,5.112-2.972,5.672-.872.35-3.096.527-6.608.527h0Z"/>
      <path class="cls-1" d="m214.458,190.928c2.121,0,22.604,5.218,25.364,7.666,1.422,1.261-.647,7.366-2.225,8-.834.335-3.255.482-6.372.482-8.673,0-22.721-1.138-22.861-2.53-.85-8.502,3.401-12.753,5.951-13.603.03-.01.077-.015.141-.015m0-1.275c-.208,0-.381.025-.545.08-3.233,1.078-7.716,5.946-6.817,14.94.118,1.181.86,2.083,9.373,2.929,4.58.455,10.373.749,14.757.749,5.418,0,6.493-.432,6.847-.573,1.701-.683,2.99-4.009,3.363-6.154.33-1.9.072-3.24-.767-3.984-3.147-2.791-23.921-7.988-26.211-7.988h0Z"/>
    </g>
    <path d="m208.685,200.877c-.692.494-.486,5.172.196,6.128.494.692,14.096,2.287,14.788,1.793.842-.601,5.783-5.846,5.101-6.802s-19.225-1.733-20.085-1.119Z"/>
    <g>
      <path d="m234.721,209.647c2.551,2.551,4.251,7.652,3.401,18.704"/>
      <path class="cls-1" d="m234.766,209.602c4.33,4.186,4.998,13.194,3.419,18.754,0,0-.127-.01-.127-.01-.742-4.817.152-9.707-1.202-14.419-.429-1.532-1.101-3.022-2.181-4.236,0,0,.09-.09.09-.09h0Z"/>
    </g>
  </g>
  <g>
    <path d="m58.432,145.394c-3.079,0-5.575-2.496-5.575-5.575v-8.023c0-2.452,0-4.904-2.266-7.356-.185-.2-.394-.376-.609-.544-7.066-5.496-12.39-15.918-9.878-16.756,1.003-.332,35.708-13.603,46.761.85,1.08,1.411-2.925,15.21-4.753,17.54-.944,1.598-2.899,3.69-2.899,6.266v8.023c0,3.079-2.496,5.575-5.575,5.575h-15.207Z"/>
    <g>
      <path d="m82.982,110.766c-1.295,0-2.668-.596-3.418-1.483-.481-.569-.678-1.212-.568-1.859.75-4.437,2.993-10.772,5.449-13.696.456-.542,1.098-.828,1.857-.828,2.156,0,4.83,2.348,5.085,4,.43,2.772-3.71,11.679-6.709,13.44-.474.278-1.06.425-1.696.425h0Z"/>
      <path class="cls-1" d="m86.302,93.564c1.8,0,4.215,2.051,4.43,3.438.385,2.487-3.604,11.131-6.39,12.766-.394.231-.867.334-1.36.334-1.671,0-3.566-1.183-3.332-2.568.736-4.357,2.964-10.596,5.303-13.379.35-.417.823-.592,1.348-.592m0-1.328c-.961,0-1.779.368-2.365,1.065-2.529,3.01-4.832,9.488-5.596,14.012-.141.834.113,1.686.716,2.398.882,1.044,2.423,1.718,3.925,1.718.754,0,1.456-.179,2.032-.517,3.229-1.896,7.493-11.121,7.03-14.114-.33-2.132-3.389-4.563-5.742-4.563h0Z"/>
    </g>
    <g>
      <path d="m74.239,107.577c-1.747,0-3.532-1.062-4.391-2.11-.517-.63-.728-1.271-.612-1.852.872-4.358,4.309-12.079,7.21-16.197.452-.643,1.201-.982,2.164-.982,1.54,0,3.499.914,4.657,2.174.748.812,1.106,1.69,1.035,2.538-.211,2.545-5.441,13.684-8.005,15.751-.55.443-1.262.678-2.059.678h0Z"/>
      <path class="cls-1" d="m78.611,87.074c2.139,0,5.223,2.017,5.057,4.021-.203,2.443-5.384,13.383-7.77,15.308-.469.378-1.047.537-1.659.537-2.119,0-4.636-1.906-4.378-3.199.85-4.251,4.251-11.903,7.106-15.955.351-.498.947-.712,1.643-.712m0-1.275c-1.163,0-2.117.445-2.686,1.253-2.942,4.176-6.428,12.011-7.314,16.439-.108.54-.067,1.392.744,2.381.955,1.165,2.939,2.344,4.884,2.344.944,0,1.795-.283,2.459-.819,2.725-2.198,8.017-13.509,8.24-16.195.086-1.031-.33-2.076-1.201-3.023-1.289-1.401-3.397-2.379-5.127-2.379h0Z"/>
    </g>
    <g>
      <path d="m68.095,100.979c-1.104,0-8.959-1.498-9.782-2.685-.154-.223-.191-.488-.102-.728,2.442-6.512,5.799-12.612,9.452-17.179.204-.255.606-.559,1.367-.559,2.002,0,5.636,2.148,6.888,3.751.46.589.633,1.131.513,1.611-.487,1.946-6.553,15.694-8.235,15.785l-.101.002Z"/>
      <path class="cls-1" d="m69.03,80.466c2.209,0,7.134,3.167,6.783,4.57-.85,3.401-6.803,15.258-7.652,15.304-.02.001-.042.002-.066.002-1.393,0-9.579-1.77-9.286-2.552,2.551-6.802,5.951-12.753,9.352-17.004.177-.222.481-.319.869-.319m0-1.275c-1.014,0-1.574.434-1.865.798-3.694,4.617-7.086,10.78-9.55,17.353-.165.439-.101.918.174,1.315,1.08,1.558,9.43,2.96,10.306,2.96.049,0,.094-.001.135-.003.71-.038,1.38-.075,4.897-7.096,1.502-2.998,3.43-7.199,3.923-9.172.17-.68-.042-1.406-.629-2.158-1.375-1.762-5.131-3.997-7.391-3.997h0Z"/>
    </g>
    <g>
      <path d="m56.414,96.916c-2.373,0-10.846-2.553-11.691-3.726-.155-.215-.2-.472-.123-.705,1.782-5.344,8.778-15.854,12.272-18.437.281-.208.654-.313,1.11-.313,2.211,0,6.564,2.515,7.894,4.561.569.875.486,1.514.316,1.896-2.813,6.33-4.514,9.266-6.869,13.329-.514.886-1.062,1.831-1.662,2.883-.29.507-.976.511-1.242.511h-.006Z"/>
      <path class="cls-1" d="m57.983,74.374c2.444,0,8.424,3.769,7.627,5.561-3.401,7.652-5.101,10.202-8.502,16.154-.075.132-.321.19-.694.19-2.614,0-11.448-2.872-11.209-3.591,1.7-5.101,8.53-15.527,12.046-18.126.175-.129.425-.188.731-.188m0-1.275c-.595,0-1.096.147-1.489.438-3.924,2.9-10.799,13.65-12.498,18.748-.143.429-.066.895.21,1.279,1.129,1.566,10.031,3.99,12.208,3.99.328,0,1.326,0,1.801-.833.601-1.052,1.149-1.997,1.662-2.883,2.364-4.079,4.072-7.027,6.898-13.386.234-.526.361-1.388-.364-2.503-1.444-2.222-6.013-4.851-8.429-4.851h0Z"/>
    </g>
    <g>
      <path d="m62.114,110.308c-.232,0-23.212-.28-23.494-3.104-.862-8.622,3.345-13.259,6.384-14.271.097-.032.206-.047.343-.047,2.201,0,22.827,5.202,25.787,7.827.825.731.761,2.251.562,3.398-.351,2.018-1.578,5.111-2.972,5.67-.872.35-3.096.527-6.609.527h0Z"/>
      <path class="cls-1" d="m45.347,93.523c2.121,0,22.604,5.218,25.364,7.666,1.422,1.261-.647,7.366-2.225,8-.834.335-3.255.482-6.372.482-8.673,0-22.721-1.138-22.861-2.53-.85-8.502,3.401-12.753,5.951-13.603.03-.01.077-.015.141-.015m0-1.275c-.208,0-.381.025-.545.08-3.233,1.078-7.716,5.946-6.817,14.94.118,1.181.86,2.083,9.373,2.929,4.58.455,10.373.749,14.757.749,5.418,0,6.493-.432,6.847-.573,1.701-.683,2.99-4.009,3.363-6.154.33-1.9.072-3.24-.767-3.984-3.147-2.791-23.921-7.988-26.211-7.988h0Z"/>
    </g>
    <path d="m39.574,103.472c-.692.494-.486,5.172.196,6.128.494.692,14.096,2.287,14.788,1.793.842-.601,5.783-5.846,5.101-6.802s-19.225-1.733-20.085-1.119Z"/>
    <g>
      <path d="m65.61,112.242c2.551,2.551,4.251,7.652,3.401,18.704"/>
      <path class="cls-1" d="m65.656,112.197c4.33,4.186,4.998,13.194,3.419,18.754,0,0-.127-.01-.127-.01-.742-4.817.152-9.707-1.202-14.419-.429-1.532-1.101-3.022-2.181-4.236,0,0,.09-.09.09-.09h0Z"/>
    </g>
  </g>
  <g>
    <path d="m58.497,242.538c-3.079,0-5.575-2.496-5.575-5.575v-8.023c0-2.452,0-4.904-2.266-7.356-.185-.2-.394-.376-.609-.544-7.066-5.496-12.39-15.918-9.878-16.756,1.003-.332,35.708-13.603,46.761.85,1.08,1.411-2.925,15.21-4.753,17.54-.944,1.598-2.899,3.69-2.899,6.266v8.023c0,3.079-2.496,5.575-5.575,5.575h-15.207Z"/>
    <g>
      <path d="m83.046,207.91c-1.295,0-2.668-.596-3.418-1.482-.481-.569-.678-1.212-.568-1.859.75-4.437,2.993-10.773,5.45-13.696.456-.542,1.097-.828,1.856-.828,2.156,0,4.83,2.348,5.085,4,.429,2.773-3.711,11.68-6.71,13.44-.474.278-1.061.425-1.696.425h0Z"/>
      <path class="cls-1" d="m86.366,190.708c1.8,0,4.215,2.051,4.43,3.438.385,2.487-3.604,11.131-6.39,12.767-.394.231-.867.334-1.36.334-1.671,0-3.566-1.183-3.332-2.568.736-4.357,2.964-10.596,5.303-13.379.35-.417.823-.592,1.348-.592m0-1.328c-.961,0-1.779.368-2.365,1.065-2.529,3.01-4.832,9.488-5.596,14.012-.141.834.113,1.686.716,2.398.882,1.044,2.423,1.718,3.925,1.718.754,0,1.456-.179,2.032-.517,3.229-1.896,7.493-11.121,7.03-14.115-.33-2.132-3.389-4.563-5.742-4.563h0Z"/>
    </g>
    <g>
      <path d="m74.304,204.721c-1.748,0-3.532-1.062-4.392-2.111-.516-.629-.728-1.27-.611-1.851.872-4.358,4.309-12.079,7.21-16.197.452-.643,1.201-.982,2.164-.982,1.54,0,3.499.914,4.657,2.174.748.812,1.106,1.69,1.035,2.538-.211,2.545-5.441,13.683-8.005,15.751-.55.444-1.262.678-2.058.678h0Z"/>
      <path class="cls-1" d="m78.675,184.218c2.139,0,5.223,2.017,5.057,4.021-.203,2.443-5.384,13.383-7.77,15.308-.469.378-1.047.537-1.659.537-2.119,0-4.636-1.906-4.378-3.199.85-4.251,4.251-11.903,7.106-15.955.351-.498.947-.712,1.643-.712m0-1.275c-1.163,0-2.117.445-2.686,1.253-2.942,4.176-6.428,12.011-7.314,16.439-.108.54-.067,1.392.744,2.381.955,1.165,2.939,2.344,4.884,2.344.944,0,1.795-.283,2.459-.819,2.725-2.198,8.017-13.509,8.24-16.195.086-1.031-.33-2.076-1.201-3.023-1.289-1.401-3.397-2.379-5.127-2.379h0Z"/>
    </g>
    <g>
      <path d="m68.159,198.123c-1.104,0-8.959-1.499-9.781-2.686-.155-.223-.191-.488-.102-.729,2.442-6.511,5.798-12.612,9.451-17.178.204-.254.606-.558,1.367-.558,2.002,0,5.637,2.148,6.889,3.751.46.589.633,1.131.513,1.611-.487,1.946-6.554,15.695-8.236,15.786l-.101.002Z"/>
      <path class="cls-1" d="m69.094,177.61c2.209,0,7.134,3.167,6.783,4.57-.85,3.401-6.803,15.258-7.652,15.303-.02.001-.042.002-.066.002-1.393,0-9.579-1.77-9.286-2.552,2.551-6.802,5.951-12.753,9.352-17.004.177-.222.481-.319.869-.319m0-1.275c-1.014,0-1.574.434-1.865.798-3.694,4.617-7.086,10.78-9.55,17.353-.165.439-.101.918.174,1.315,1.08,1.558,9.43,2.96,10.306,2.96.049,0,.094-.001.135-.003.71-.038,1.38-.075,4.897-7.096,1.502-2.998,3.43-7.199,3.923-9.172.17-.68-.042-1.406-.629-2.158-1.375-1.762-5.131-3.997-7.391-3.997h0Z"/>
    </g>
    <g>
      <path d="m56.479,194.06c-2.373,0-10.846-2.553-11.691-3.726-.155-.215-.2-.472-.123-.705,1.782-5.344,8.778-15.854,12.272-18.437.281-.208.655-.313,1.11-.313,2.212,0,6.565,2.515,7.895,4.561.568.875.485,1.514.315,1.896-2.813,6.33-4.514,9.265-6.869,13.329-.514.886-1.062,1.831-1.662,2.883-.29.507-.976.511-1.242.511h-.006Z"/>
      <path class="cls-1" d="m58.048,171.518c2.444,0,8.424,3.769,7.627,5.561-3.401,7.652-5.101,10.202-8.502,16.154-.075.132-.321.19-.694.19-2.614,0-11.448-2.872-11.209-3.591,1.7-5.101,8.53-15.527,12.046-18.126.175-.129.425-.188.731-.188m0-1.275c-.595,0-1.096.147-1.489.438-3.924,2.9-10.799,13.65-12.498,18.748-.143.429-.066.895.21,1.279,1.129,1.566,10.031,3.99,12.208,3.99.328,0,1.326,0,1.801-.833.601-1.052,1.149-1.997,1.662-2.883,2.364-4.079,4.072-7.027,6.898-13.386.234-.526.361-1.388-.364-2.503-1.444-2.222-6.013-4.851-8.429-4.851h0Z"/>
    </g>
    <g>
      <path d="m62.179,207.452c-.232,0-23.212-.28-23.494-3.104-.862-8.621,3.345-13.258,6.384-14.271.097-.032.206-.047.343-.047,2.202,0,22.828,5.202,25.788,7.827.825.731.76,2.251.562,3.397-.351,2.018-1.578,5.111-2.972,5.671-.872.35-3.096.527-6.608.527h-.001Z"/>
      <path class="cls-1" d="m45.412,190.667c2.121,0,22.604,5.218,25.364,7.666,1.422,1.261-.647,7.366-2.225,8-.834.335-3.255.482-6.372.482-8.673,0-22.721-1.138-22.861-2.53-.85-8.502,3.401-12.753,5.951-13.603.03-.01.077-.015.141-.015m0-1.275c-.208,0-.381.025-.545.08-3.233,1.078-7.716,5.946-6.817,14.94.118,1.181.86,2.083,9.373,2.929,4.58.455,10.373.749,14.757.749,5.418,0,6.493-.432,6.847-.573,1.701-.683,2.99-4.009,3.363-6.154.33-1.9.072-3.24-.767-3.984-3.147-2.791-23.921-7.988-26.211-7.988h0Z"/>
    </g>
    <path d="m39.638,200.616c-.692.494-.486,5.172.196,6.128.494.692,14.096,2.287,14.788,1.793.842-.601,5.783-5.846,5.101-6.802s-19.225-1.733-20.085-1.119Z"/>
    <g>
      <path d="m65.675,209.386c2.551,2.551,4.251,7.652,3.401,18.704"/>
      <path class="cls-1" d="m65.72,209.341c4.33,4.186,4.998,13.194,3.419,18.754,0,0-.127-.01-.127-.01-.742-4.817.152-9.707-1.202-14.419-.429-1.532-1.101-3.022-2.181-4.236l.09-.09h0Z"/>
    </g>
  </g>
  <g>
    <path d="m142.988,95.607c-3.079,0-5.575-2.496-5.575-5.575v-8.023c0-2.452,0-4.904-2.266-7.356-.185-.2-.394-.376-.609-.544-7.066-5.496-12.39-15.918-9.878-16.756,1.003-.332,35.708-13.603,46.761.85,1.08,1.411-2.925,15.21-4.753,17.54-.944,1.598-2.899,3.69-2.899,6.266v8.023c0,3.079-2.496,5.575-5.575,5.575h-15.207Z"/>
    <g>
      <path d="m167.537,60.979c-1.295,0-2.668-.596-3.418-1.482-.481-.569-.678-1.212-.569-1.859.75-4.437,2.994-10.773,5.45-13.696.456-.542,1.098-.828,1.857-.828,2.156,0,4.83,2.348,5.085,4,.429,2.772-3.71,11.679-6.709,13.44-.474.278-1.061.425-1.696.425h0Z"/>
      <path class="cls-1" d="m170.857,43.777c1.8,0,4.215,2.051,4.43,3.438.385,2.487-3.604,11.131-6.39,12.767-.394.231-.867.334-1.36.334-1.671,0-3.566-1.183-3.332-2.568.736-4.357,2.964-10.596,5.303-13.379.35-.417.823-.592,1.348-.592m0-1.328c-.961,0-1.779.368-2.365,1.065-2.529,3.01-4.832,9.488-5.596,14.012-.141.834.113,1.686.716,2.398.882,1.044,2.423,1.718,3.925,1.718.754,0,1.456-.179,2.032-.517,3.229-1.896,7.493-11.121,7.03-14.114-.33-2.132-3.389-4.563-5.742-4.563h0Z"/>
    </g>
    <g>
      <path d="m158.794,57.79c-1.747,0-3.532-1.062-4.391-2.11-.517-.63-.728-1.271-.612-1.852.872-4.358,4.308-12.078,7.209-16.197.453-.643,1.202-.982,2.165-.982,1.54,0,3.499.914,4.657,2.174.748.812,1.105,1.69,1.035,2.538-.211,2.544-5.44,13.683-8.004,15.751-.55.444-1.262.678-2.059.678h0Z"/>
      <path class="cls-1" d="m163.166,37.287c2.139,0,5.223,2.017,5.057,4.021-.203,2.443-5.384,13.383-7.77,15.308-.469.378-1.047.537-1.659.537-2.119,0-4.636-1.906-4.378-3.199.85-4.251,4.251-11.903,7.106-15.955.351-.498.947-.712,1.643-.712m0-1.275c-1.163,0-2.117.445-2.686,1.253-2.942,4.176-6.428,12.011-7.314,16.439-.108.54-.067,1.392.744,2.381.955,1.165,2.939,2.344,4.884,2.344.944,0,1.795-.283,2.459-.819,2.725-2.198,8.017-13.509,8.24-16.195.086-1.031-.33-2.076-1.201-3.023-1.289-1.401-3.397-2.379-5.127-2.379h0Z"/>
    </g>
    <g>
      <path d="m152.65,51.192c-1.104,0-8.959-1.498-9.781-2.685-.154-.223-.191-.488-.102-.728,2.442-6.512,5.799-12.613,9.451-17.179.204-.255.606-.559,1.367-.559,2.002,0,5.637,2.148,6.889,3.751.46.589.633,1.131.513,1.611-.487,1.946-6.554,15.694-8.236,15.785l-.101.002Z"/>
      <path class="cls-1" d="m153.585,30.679c2.209,0,7.134,3.167,6.783,4.57-.85,3.401-6.803,15.258-7.652,15.303-.02.001-.042.002-.066.002-1.393,0-9.579-1.77-9.286-2.552,2.551-6.802,5.951-12.753,9.352-17.004.177-.222.481-.319.869-.319m0-1.275c-1.014,0-1.574.434-1.865.798-3.694,4.617-7.086,10.78-9.55,17.353-.165.439-.101.918.174,1.315,1.08,1.558,9.43,2.96,10.306,2.96.049,0,.094-.001.135-.003.71-.038,1.38-.075,4.897-7.096,1.502-2.998,3.43-7.199,3.923-9.172.17-.68-.042-1.406-.629-2.158-1.375-1.762-5.131-3.997-7.391-3.997h0Z"/>
    </g>
    <g>
      <path d="m140.97,47.129c-2.373,0-10.846-2.553-11.691-3.726-.155-.216-.2-.473-.123-.705,1.781-5.344,8.777-15.854,12.272-18.437.281-.208.654-.313,1.11-.313,2.211,0,6.564,2.515,7.894,4.561.569.875.486,1.514.316,1.896-2.812,6.326-4.512,9.261-6.865,13.322-.515.888-1.063,1.835-1.666,2.889-.29.507-.976.511-1.242.511h-.006Z"/>
      <path class="cls-1" d="m142.539,24.587c2.444,0,8.424,3.769,7.627,5.561-3.401,7.652-5.101,10.202-8.502,16.154-.075.132-.321.19-.694.19-2.614,0-11.448-2.872-11.209-3.591,1.7-5.101,8.53-15.527,12.046-18.126.175-.129.425-.188.731-.188m0-1.275c-.595,0-1.096.147-1.489.438-3.924,2.9-10.799,13.65-12.498,18.748-.143.429-.066.895.21,1.279,1.129,1.566,10.031,3.99,12.208,3.99.328,0,1.326,0,1.801-.833.601-1.052,1.149-1.997,1.662-2.883,2.364-4.079,4.072-7.027,6.898-13.386.234-.526.361-1.388-.364-2.503-1.444-2.222-6.013-4.851-8.429-4.851h0Z"/>
    </g>
    <g>
      <path d="m146.669,60.521c-.232,0-23.211-.28-23.494-3.104-.862-8.623,3.346-13.259,6.384-14.271.097-.032.206-.047.343-.047,2.201,0,22.827,5.202,25.787,7.827.825.731.761,2.251.562,3.398-.351,2.018-1.578,5.111-2.972,5.67-.872.35-3.096.527-6.609.527h0Z"/>
      <path class="cls-1" d="m129.903,43.736c2.121,0,22.604,5.218,25.364,7.666,1.422,1.261-.647,7.366-2.225,8-.834.335-3.255.482-6.372.482-8.673,0-22.721-1.138-22.861-2.53-.85-8.502,3.401-12.753,5.951-13.603.03-.01.077-.015.141-.015m0-1.275c-.208,0-.381.025-.545.08-3.233,1.078-7.716,5.946-6.817,14.94.118,1.181.86,2.083,9.373,2.929,4.58.455,10.373.749,14.757.749,5.418,0,6.493-.432,6.847-.573,1.701-.683,2.99-4.009,3.363-6.154.33-1.9.072-3.24-.767-3.984-3.147-2.791-23.921-7.988-26.211-7.988h0Z"/>
    </g>
    <path d="m124.129,53.685c-.692.494-.486,5.172.196,6.128.494.692,14.096,2.287,14.788,1.793.842-.601,5.783-5.846,5.101-6.802s-19.225-1.733-20.085-1.119Z"/>
    <g>
      <path d="m150.166,62.455c2.551,2.551,4.251,7.652,3.401,18.704"/>
      <path class="cls-1" d="m150.211,62.41c4.33,4.186,4.998,13.194,3.419,18.754,0,0-.127-.01-.127-.01-.742-4.817.152-9.707-1.202-14.419-.429-1.532-1.101-3.022-2.181-4.236l.09-.09h0Z"/>
    </g>
  </g>
  <g>
    <path d="m142.988,292.77c-3.079,0-5.575-2.496-5.575-5.575v-8.023c0-2.452,0-4.904-2.266-7.356-.185-.2-.394-.376-.609-.544-7.066-5.496-12.39-15.918-9.878-16.756,1.003-.332,35.708-13.603,46.761.85,1.08,1.411-2.925,15.21-4.753,17.54-.944,1.598-2.899,3.69-2.899,6.266v8.023c0,3.079-2.496,5.575-5.575,5.575h-15.207Z"/>
    <g>
      <path d="m167.537,258.142c-1.295,0-2.668-.596-3.418-1.482-.481-.569-.678-1.212-.569-1.859.75-4.437,2.994-10.773,5.45-13.696.456-.542,1.098-.828,1.857-.828,2.156,0,4.83,2.348,5.085,4,.429,2.772-3.71,11.679-6.709,13.44-.474.278-1.061.425-1.696.425h0Z"/>
      <path class="cls-1" d="m170.857,240.939c1.8,0,4.215,2.051,4.43,3.438.385,2.487-3.604,11.131-6.39,12.767-.394.231-.867.334-1.36.334-1.671,0-3.566-1.183-3.332-2.568.736-4.357,2.964-10.596,5.303-13.379.35-.417.823-.592,1.348-.592m0-1.328c-.961,0-1.779.368-2.365,1.065-2.529,3.01-4.832,9.488-5.596,14.012-.141.834.113,1.686.716,2.398.882,1.044,2.423,1.718,3.925,1.718.754,0,1.456-.179,2.032-.517,3.229-1.896,7.493-11.121,7.03-14.114-.33-2.132-3.389-4.563-5.742-4.563h0Z"/>
    </g>
    <g>
      <path d="m158.794,254.953c-1.747,0-3.532-1.062-4.391-2.11-.517-.63-.728-1.271-.612-1.852.872-4.358,4.308-12.078,7.209-16.197.453-.643,1.202-.982,2.165-.982,1.54,0,3.499.914,4.657,2.174.748.812,1.105,1.69,1.035,2.538-.211,2.544-5.44,13.683-8.004,15.751-.55.444-1.262.678-2.059.678h0Z"/>
      <path class="cls-1" d="m163.166,234.45c2.139,0,5.223,2.017,5.057,4.021-.203,2.443-5.384,13.383-7.77,15.308-.469.378-1.047.537-1.659.537-2.119,0-4.636-1.906-4.378-3.199.85-4.251,4.251-11.903,7.106-15.954.351-.498.947-.712,1.643-.712m0-1.275c-1.163,0-2.117.445-2.686,1.253-2.942,4.176-6.428,12.011-7.314,16.439-.108.54-.067,1.392.744,2.381.955,1.165,2.939,2.344,4.884,2.344.944,0,1.795-.283,2.459-.819,2.725-2.198,8.017-13.509,8.24-16.195.086-1.031-.33-2.076-1.201-3.023-1.289-1.401-3.397-2.379-5.127-2.379h0Z"/>
    </g>
    <g>
      <path d="m152.65,248.354c-1.104,0-8.959-1.498-9.781-2.685-.154-.223-.191-.488-.102-.728,2.442-6.512,5.799-12.613,9.451-17.179.204-.255.606-.559,1.367-.559,2.002,0,5.637,2.148,6.889,3.751.46.589.633,1.131.513,1.611-.487,1.946-6.554,15.694-8.236,15.785l-.101.002Z"/>
      <path class="cls-1" d="m153.585,227.842c2.209,0,7.134,3.167,6.783,4.57-.85,3.401-6.803,15.258-7.652,15.303-.02.001-.042.002-.066.002-1.393,0-9.579-1.77-9.286-2.552,2.551-6.802,5.951-12.753,9.352-17.004.177-.222.481-.319.869-.319m0-1.275c-1.014,0-1.574.434-1.865.798-3.694,4.617-7.086,10.78-9.55,17.353-.165.439-.101.918.174,1.315,1.08,1.558,9.43,2.96,10.306,2.96.049,0,.094-.001.135-.003.71-.038,1.38-.075,4.897-7.096,1.502-2.998,3.43-7.199,3.923-9.172.17-.68-.042-1.406-.629-2.158-1.375-1.762-5.131-3.997-7.391-3.997h0Z"/>
    </g>
    <g>
      <path d="m140.969,244.292c-2.373,0-10.846-2.553-11.69-3.726-.155-.215-.2-.473-.123-.705,1.781-5.344,8.777-15.854,12.272-18.437.281-.208.654-.313,1.11-.313,2.211,0,6.564,2.515,7.894,4.561.569.875.486,1.514.316,1.896-2.812,6.326-4.512,9.261-6.865,13.322-.515.888-1.063,1.835-1.666,2.889-.29.507-.975.511-1.241.511h-.007Z"/>
      <path class="cls-1" d="m142.539,221.749c2.444,0,8.424,3.769,7.627,5.561-3.401,7.652-5.101,10.202-8.502,16.154-.075.132-.321.19-.694.19-2.614,0-11.448-2.872-11.209-3.591,1.7-5.101,8.53-15.527,12.046-18.126.175-.129.425-.188.731-.188m0-1.275c-.595,0-1.096.147-1.489.438-3.924,2.9-10.799,13.65-12.498,18.748-.143.429-.066.895.21,1.279,1.129,1.566,10.031,3.99,12.208,3.99.328,0,1.326,0,1.801-.833.601-1.052,1.149-1.997,1.662-2.883,2.364-4.079,4.072-7.027,6.898-13.386.234-.526.361-1.388-.364-2.503-1.444-2.222-6.013-4.851-8.429-4.851h0Z"/>
    </g>
    <g>
      <path d="m146.669,257.684c-.232,0-23.211-.28-23.494-3.104-.862-8.623,3.346-13.259,6.384-14.271.097-.032.206-.047.343-.047,2.201,0,22.827,5.202,25.787,7.827.825.732.761,2.252.562,3.399-.337,1.941-1.516,5.085-2.972,5.669-.872.35-3.096.527-6.609.527h0Z"/>
      <path class="cls-1" d="m129.903,240.899c2.121,0,22.604,5.218,25.364,7.666,1.422,1.261-.647,7.366-2.225,8-.834.335-3.255.482-6.372.482-8.673,0-22.721-1.138-22.861-2.53-.85-8.502,3.401-12.753,5.951-13.603.03-.01.077-.015.141-.015m0-1.275c-.208,0-.381.025-.545.08-3.233,1.078-7.716,5.946-6.817,14.94.118,1.181.86,2.083,9.373,2.929,4.58.455,10.373.749,14.757.749,5.418,0,6.493-.432,6.847-.573,1.701-.683,2.991-4.009,3.363-6.154.33-1.9.072-3.24-.767-3.984-3.147-2.791-23.921-7.988-26.211-7.988h0Z"/>
    </g>
    <path d="m124.129,250.847c-.692.494-.486,5.172.196,6.128.494.692,14.096,2.287,14.788,1.793.842-.601,5.783-5.846,5.101-6.802s-19.225-1.733-20.085-1.119Z"/>
    <g>
      <path d="m150.166,259.618c2.551,2.551,4.251,7.652,3.401,18.704"/>
      <path class="cls-1" d="m150.211,259.573c4.33,4.186,4.998,13.194,3.419,18.754,0,0-.127-.01-.127-.01-.742-4.817.152-9.707-1.202-14.419-.429-1.532-1.101-3.022-2.181-4.236l.09-.09h0Z"/>
    </g>
  </g>
  <g>
    <path class="cls-1" d="m188.506,159.178s-17.461,27.321-39,27.321-39-27.321-39-27.321c0,0,17.461-27.321,39-27.321s39,27.321,39,27.321Z"/>
    <circle cx="149.506" cy="159.178" r="20.046"/>
    <circle class="cls-1" cx="158.638" cy="149.203" r="4.825"/>
  </g>
</svg>